name Run_20002_GRF.mot
datacolumns 19
datarows 15
range 1.358 1.372
endheader
time	     ground_force_vx	     ground_force_vy	     ground_force_vz	     ground_force_px	     ground_force_py	     ground_force_pz	   l_ground_force_vx	   l_ground_force_vy	   l_ground_force_vz	   l_ground_force_px	   l_ground_force_py	   l_ground_force_pz	     ground_torque_x	     ground_torque_y	     ground_torque_z	   l_ground_torque_x	   l_ground_torque_y	   l_ground_torque_z	
1.358	          0.00000000	          0.00000000	          0.00000000	          0.00000000	          0.00000000	          0.00000000	          0.00000000	          0.00000000	          0.00000000	          0.00000000	          0.00000000	          0.00000000	          0.00000000	          0.00000000	          0.00000000	          0.00000000	          0.00000000	          0.00000000	
1.359	          0.00000000	          0.00000000	          0.00000000	          0.00000000	          0.00000000	          0.00000000	          0.00000000	          0.00000000	          0.00000000	          0.00000000	          0.00000000	          0.00000000	          0.00000000	          0.00000000	          0.00000000	          0.00000000	          0.00000000	          0.00000000	
1.36	          0.00000000	          0.00000000	          0.00000000	          0.00000000	          0.00000000	          0.00000000	         -9.19630500	         29.84322000	          2.81159400	          1.06163600	          0.00000000	         -0.39201000	          0.00000000	          0.00000000	          0.00000000	          0.00000000	          1.19902000	          0.00000000	
1.361	          0.00000000	          0.00000000	          0.00000000	          0.00000000	          0.00000000	          0.00000000	         -9.96272300	         33.92053600	          3.15025200	          1.06282000	          0.00000000	         -0.39306400	          0.00000000	          0.00000000	          0.00000000	          0.00000000	          1.04949400	          0.00000000	
1.362	          0.00000000	          0.00000000	          0.00000000	          0.00000000	          0.00000000	          0.00000000	        -10.72473300	         38.47444200	          3.51967000	          1.06383600	          0.00000000	         -0.39393400	          0.00000000	          0.00000000	          0.00000000	          0.00000000	          0.89265500	          0.00000000	
1.363	          0.00000000	          0.00000000	          0.00000000	          0.00000000	          0.00000000	          0.00000000	        -11.46854500	         43.54074500	          3.92149500	          1.06472000	          0.00000000	         -0.39465100	          0.00000000	          0.00000000	          0.00000000	          0.00000000	          0.72874600	          0.00000000	
1.364	          0.00000000	          0.00000000	          0.00000000	          0.00000000	          0.00000000	          0.00000000	        -12.17853900	         49.15599100	          4.35732600	          1.06549900	          0.00000000	         -0.39524200	          0.00000000	          0.00000000	          0.00000000	          0.00000000	          0.55803900	          0.00000000	
1.365	          0.00000000	          0.00000000	          0.00000000	          0.00000000	          0.00000000	          0.00000000	        -12.83748100	         55.35721600	          4.82869100	          1.06619000	          0.00000000	         -0.39572400	          0.00000000	          0.00000000	          0.00000000	          0.00000000	          0.38083900	          0.00000000	
1.366	          0.00000000	          0.00000000	          0.00000000	          0.00000000	          0.00000000	          0.00000000	        -13.42680900	         62.18167100	          5.33703300	          1.06680600	          0.00000000	         -0.39611100	          0.00000000	          0.00000000	          0.00000000	          0.00000000	          0.19748500	          0.00000000	
1.367	          0.00000000	          0.00000000	          0.00000000	          0.00000000	          0.00000000	          0.00000000	        -13.92701300	         69.66650400	          5.88367400	          1.06735300	          0.00000000	         -0.39641600	          0.00000000	          0.00000000	          0.00000000	          0.00000000	          0.00834400	          0.00000000	
1.368	          0.00000000	          0.00000000	          0.00000000	          0.00000000	          0.00000000	          0.00000000	        -14.31811000	         77.84841900	          6.46980000	          1.06783500	          0.00000000	         -0.39664600	          0.00000000	          0.00000000	          0.00000000	          0.00000000	         -0.18618700	          0.00000000	
1.369	          0.00000000	          0.00000000	          0.00000000	          0.00000000	          0.00000000	          0.00000000	        -14.58019200	         86.76330600	          7.09642700	          1.06825400	          0.00000000	         -0.39680900	          0.00000000	          0.00000000	          0.00000000	          0.00000000	         -0.38567900	          0.00000000	
1.37	          0.00000000	          0.00000000	          0.00000000	          0.00000000	          0.00000000	          0.00000000	        -14.69404100	         96.44583100	          7.76438200	          1.06860900	          0.00000000	         -0.39691000	          0.00000000	          0.00000000	          0.00000000	          0.00000000	         -0.58967800	          0.00000000	
1.371	          0.00000000	          0.00000000	          0.00000000	          0.00000000	          0.00000000	          0.00000000	        -14.64180200	        106.92899300	          8.47427000	          1.06889900	          0.00000000	         -0.39695400	          0.00000000	          0.00000000	          0.00000000	          0.00000000	         -0.79769900	          0.00000000	
1.372	          0.00000000	          0.00000000	          0.00000000	          0.00000000	          0.00000000	          0.00000000	        -14.40767500	        118.24363700	          9.22644700	          1.06912100	          0.00000000	         -0.39694400	          0.00000000	          0.00000000	          0.00000000	          0.00000000	         -1.00923400	          0.00000000	
